Patient4_TMGait_0pt3_01_left_13_EMG.mot
version=1
nRows=33
nColumns=33
inDegrees=no
endheader
time	1LAddLong	2LGlutMax	3LGlutMed	4LIliopsoas	5LSemiMemb	6LBicFemLong	7LRecFem	8LVastMed	9LVastLat	10LGasMed	11LTibAnt	12lTibPost	13LPeroneusLong	14LSol	15LExtDigLong	16LFlexDigLong	17RAddLong	18RGlutMax	19RGlutMed	20RIliopsoas	21RSemiMemb	22RBicFemLong	23RRecFem	24RVastMed	25RVastLat	26RGasMed	27RTibAnt	28RTibPost	29RPeroneusLong	30RSol	31RExtDigLong	32RFlexDigLong
25.38	0.008698	0.007019	-0.14938	0.010376	0.024414	-0.079803	0.001678	0.012817	0.020294	0.007324	0.12573	0.006561	-0.12787	-0.029449	-0.23071	-0.044708	0.034027	0.025787	-0.028839	0.030823	0.13718	0.011902	-0.033264	0.18936	0.013275	0.000153	-0.026245	0.000153	0.10208	0.074463	-0.005035	-0.004578
25.381	0.000763	-0.019073	-0.13062	0.006561	0.057068	-0.052032	-0.038605	0.013275	-0.043793	-0.001373	0.13596	0.007172	0.11734	-0.087585	-0.17029	-0.022736	-0.000305	0.036469	0.005493	-0.088654	0.1297	0.05188	-0.019073	0.14511	-0.043182	-0.001373	-0.24521	-0.001068	0.026245	0.088348	-0.00473	-0.00946
25.382	0.006409	0.008545	-0.040436	0.01358	0.033112	-0.042725	-0.15518	0.005951	-0.067444	-0.02533	0.018921	0.009613	0.13916	-0.048218	0.49042	-0.036926	-0.037079	0.014191	0.092316	-0.066223	0.30579	0.047302	-0.026093	0.14358	-0.038757	-0.009766	-0.25314	0.001984	-0.044098	0.072174	-0.006104	-0.005035
25.383	0.009003	-0.032959	-0.14023	0.003815	0.016327	-0.021667	-0.23682	0.001526	-0.057983	-0.011749	0.12146	0.001221	0.16052	0.032654	0.079193	-0.031891	-0.066223	-0.007477	-0.010834	0.074158	0.23544	0.03006	-0.049896	0.24185	-0.015259	-0.007324	-0.21515	-0.004883	-0.027008	0.065308	-0.004578	-0.00946
25.384	0.00946	0.002289	-0.085449	-0.001068	0.018158	-0.032043	-0.16922	0.004578	0.007172	-0.020142	0.078583	0.003815	0.11704	0.13168	0.31281	-0.036774	-0.066528	0.00351	-0.056305	0.084534	0.004578	0.10864	-0.020447	0.21896	-0.000916	0.00351	-0.39307	-0.003967	0.050049	0.002747	-0.004272	0.001221
25.385	0.006104	0.018616	-0.079193	-0.010529	0.0177	-0.053406	-0.11002	-0.001068	0.072937	-0.02182	-0.11368	0.004272	-0.029907	0.12528	0.82245	-0.034027	-0.032043	-0.018616	-0.11963	0.12009	-0.044556	0.075989	0.022583	0.068207	-0.019989	0.005341	-0.36057	-0.007629	0.074768	0.014496	-0.002747	-0.012665
25.386	0.002899	-0.007324	-0.032501	0.002899	0.009003	-0.08316	-0.10346	-0.006714	0.050812	-0.025177	-0.10971	0.005951	0.11536	0.11917	-0.42068	-0.03006	-0.016174	-0.034485	-0.11459	0.080109	0.15045	-0.041199	0.061798	-0.019836	0.017395	-0.001678	-0.14862	-0.002289	0.013885	0.00412	0.007172	-0.007782
25.387	-0.006256	-0.013275	-0.053406	0.013733	-0.001373	-0.10117	-0.024414	0.032349	0.054169	-0.046539	0.030823	0.003357	-0.011749	0.17059	0.12039	-0.048065	-0.037537	-0.046539	-0.069275	0.010986	-0.029144	-0.006866	0.12711	-0.12192	0.013428	-0.000916	-0.013275	-0.006561	-0.024872	0.039978	-0.001831	-0.014648
25.388	0.007019	-0.066986	-0.12344	0.014648	0.013885	-0.1593	0.005341	0.006866	0.056152	-0.040588	0.1857	0.001221	-0.088959	0.10971	-0.58395	-0.040436	-0.032043	0.006561	-0.15839	-0.16327	-0.057831	0.034485	0.15381	-0.13245	0.18539	-0.006866	0.014801	-0.010223	-0.055237	0.05661	-0.005798	-0.011902
25.389	0.006256	-0.05188	-0.050812	0.014648	0.007477	-0.018463	-0.016479	0.004425	0.005951	-0.027924	0.18402	0.006866	-0.11963	0.003204	-0.32822	-0.041046	-0.011444	0.010681	-0.039215	-0.20706	0.069885	0.002747	0.087738	-0.11276	0.177	-0.005341	0.010681	-0.001526	-0.022278	0.033722	-0.004883	-0.008545
25.39	0.000305	-0.041809	-0.13702	0.012512	0.008392	0.034943	-0.02121	0.005646	-0.001831	0.014191	0.019684	-0.00061	-0.15488	-0.088806	-0.16266	-0.048065	-0.008087	0.066833	-0.039215	-0.16449	0.085602	-0.00824	0.032501	-0.059357	0.059814	-0.009003	0.028076	-0.000305	-0.018463	0.009308	-0.003357	0.001068
25.391	0.005035	-0.005951	-0.041351	-0.005493	0.014038	0.074158	-0.13306	0.011139	0.004272	0.041351	-0.087585	0.005493	0.074005	-0.019989	-0.11429	-0.035248	-0.010986	0.07019	0.22247	-0.098724	0.075378	-0.052795	-0.13733	0.026703	0.036469	-0.001526	0.067139	0	0	0.010376	-0.005188	-0.003052
25.392	0.001984	-0.013885	-0.084534	0.001678	0.004578	0.039215	-0.19775	0.009155	-0.028534	0.049286	-0.23346	0.006409	0.067444	-0.007019	-0.11047	-0.035095	0.000763	0.065155	0.052032	0.014648	0.089722	-0.050964	-0.09201	0.08606	-0.015106	-0.004425	0.045929	-0.005493	-0.012817	0.001221	-0.004578	-0.001373
25.393	0.001068	-0.019684	-0.075378	0.006104	0.003662	-0.015259	-0.13825	0.012054	0.009613	0.051727	-0.21851	0.006104	-0.030975	-0.049133	0.2327	-0.024719	0.012054	0.027771	-0.037842	0.22614	0.10208	-0.082092	-0.22812	0.23132	0.076447	-0.004272	0.027771	-0.001526	-0.021515	0.001526	-0.005798	0.00061
25.394	0.00946	-0.03891	-0.13229	0.0177	-0.011902	-0.018768	-0.17609	0.002441	0.062408	0.041656	-0.011139	-0.000916	0.2446	-0.079651	-0.22705	-0.041351	0.028229	0.021362	0.14572	0.27634	0.1149	-0.13367	-0.34195	0.19653	0.23987	-0.006256	-0.037994	-0.002747	-0.028839	0.023193	-0.006256	-0.002136
25.395	0.005646	-0.053864	-0.13901	0.017548	0.011444	-0.010529	-0.19547	0.011902	0.035553	-0.041351	0.12787	0.003815	0.12054	-0.044403	0.000305	-0.02533	0.048828	0.03067	0.00824	0.15167	0.086212	-0.17334	-0.17609	-0.12375	0.032349	-0.008392	-0.045624	-0.003357	-0.04837	0.000916	-0.007935	-0.00061
25.396	0.009308	-0.022888	-0.10544	0.027466	0.010681	0.064087	-0.19959	0.015411	0.053711	-0.20004	-0.032654	-0.004578	-0.10971	-0.02655	0.19104	-0.013123	0.045776	0.029755	-0.03891	0.050507	-0.029602	-0.16251	-0.01358	-0.17471	0.15213	-0.006714	-0.03418	-0.001221	-0.05661	-0.050507	-0.005646	-0.002899
25.397	-0.006561	0.000305	-0.085449	0.004578	-0.021362	0.047455	-0.04776	-0.006256	0.004883	-0.11826	-0.10483	0.002899	-0.10742	-0.10956	-0.054321	-0.043182	0.043335	0.026703	-0.058746	0.02594	-0.20294	-0.11261	0.12436	-0.071716	0.26215	-0.008698	-0.006256	0	-0.016632	-0.037689	-0.004883	-0.003204
25.398	-0.003967	0.001984	-0.041809	0.000153	-0.027466	0.059357	0.03479	-0.001678	-0.08255	-0.031738	-0.242	-0.002289	-0.036469	-0.16403	-0.068665	-0.027313	0.036774	0.065918	-0.019531	-0.001373	-0.21133	-0.084229	0.12665	0.014496	0.18249	-0.003662	0.040283	-0.00473	0.060425	-0.063019	-0.003967	-0.001526
25.399	-0.003815	0.037231	-0.018463	0.002747	0.023804	0.096283	-0.03067	0.00473	-0.036926	-0.021973	-0.18051	-0.003204	-0.1474	-0.16663	0.13504	-0.028076	0.025787	0.036469	-0.028839	-0.023804	-0.026093	-0.005798	0.017548	-0.026093	0.16098	-0.001068	0.056	-0.002899	0.075989	-0.051727	0.000305	-0.00412
25.4	0.007935	0.011292	-0.039825	0.002594	0.072479	0.069885	-0.080566	0.008087	-0.014191	-0.031586	-0.031281	0.004272	-0.13763	-0.004272	0.059052	-0.034943	0.013275	0.055237	-0.13763	-0.032654	0.37323	0.1564	0.014038	-0.092926	0.060425	-0.007172	-0.028687	-0.01236	0.018005	-0.056152	-0.002441	-0.00946
25.401	0.011139	-0.008087	-0.077209	0.006409	0.034485	0	-0.09964	0.003052	0.015411	-0.028229	0.018158	-0.009308	0.16022	-0.048981	0.053864	-0.028992	0.026703	0.088806	-0.1648	0.001831	0.15564	0.15411	0.046539	-0.088501	-0.071869	-0.000916	0.3363	-0.002899	0.053711	-0.12268	-0.001831	-0.01236
25.402	0.006561	-0.012817	-0.092468	-0.002289	-0.032043	0.032654	-0.11765	0.009155	0.026245	-0.015259	-0.049744	-0.000153	-0.061035	-0.12909	-0.21042	-0.046234	0.031433	0.094757	-0.26123	0.022583	0.044556	0.092468	0.058289	0.062866	-0.24124	-0.004425	0.5629	-0.002747	-0.012665	-0.14587	-0.003204	0.003052
25.403	0.000916	0.018311	-0.081635	0.00061	-0.039978	0.091095	-0.052338	0.002747	0.034485	-0.00885	-0.042725	0.003357	0.039368	-0.059662	-0.13596	-0.020447	0.019684	0.063629	-0.20416	-0.019989	0.005188	0.054474	0.10269	0.10498	-0.4982	-0.002747	0.45044	-0.001221	-0.037842	-0.14374	-0.001678	-0.009308
25.404	0.006104	0.010986	-0.004272	0.011597	-0.047302	-0.074768	-0.037384	0.002289	-0.001221	-0.002594	-0.0383	0.000458	-0.042572	-0.059204	-0.044098	-0.037842	0.007324	0.033875	0.053101	-0.077362	0.014191	0.043335	0.1329	-0.020294	-0.60638	-0.002289	0.14771	-0.001068	-0.10407	-0.14404	-0.000305	-0.005798
25.405	0.00473	0.020447	-0.023956	0.025635	-0.019989	-0.086212	-0.047455	0.000153	-0.015564	-0.028229	-0.009918	0.003052	0.031586	-0.068665	-0.037231	-0.050964	0.007629	0.015564	0.29327	-0.059967	0.16312	0.058289	0.015564	-0.090332	-0.44189	-0.001678	0.12436	-0.004272	-0.08606	-0.10986	-0.00473	0.001526
25.406	0.010986	-0.004272	-0.0737	0.028534	0.035553	-0.064392	-0.084229	0.003815	0.03067	-0.022125	-0.027466	0.006561	0.097198	-0.059509	0.029449	0.00351	-0.027008	0.0914	0.22797	-0.036011	0.25131	0.084076	0.036163	-0.040436	-0.22385	0.00061	-0.098877	-0.002136	-0.022583	-0.058289	-0.003662	0.011902
25.407	0.009613	-0.009613	-0.072327	0.010986	0.021057	-0.02121	-0.050659	0.008087	0.039673	-0.013733	0.032196	0.007019	-0.15732	0.003967	0.077515	-0.028992	-0.066528	0.059814	-0.013733	-0.012054	0.15533	0.1294	0.000153	0.016632	-0.042419	-0.00061	-0.34164	-0.006256	0.022125	-0.042725	-0.003052	0.010223
25.408	-0.009918	0.015564	-0.054932	-0.003052	-0.005188	0.050201	-0.047302	0.005035	0.011749	0.002441	0.023041	0.006409	-0.056763	-0.013885	0.11108	-0.029602	-0.043182	0.032196	-0.13016	0.034027	0.065918	0.13046	-0.037994	-0.036163	-0.014648	0.000763	-0.32623	-0.001373	0.027771	0.027161	-0.002899	0.000763
25.409	0.018005	0.009155	-0.015411	0.003967	-0.01358	-0.006256	-0.000458	0.009918	-0.012512	-0.005188	0.040131	0.009155	0.003967	-0.00946	0.11337	-0.036774	-0.000458	-0.01709	0.001373	-0.010376	0.071259	0.073242	-0.036926	-0.14374	-0.034485	-0.002747	-0.031891	-0.005951	-0.046844	0.023499	-0.00473	0.005646
25.41	-0.028839	0.000305	0.008698	0.001373	-0.006714	-0.011444	-0.030365	0.009613	0.000305	-0.005493	0.026245	0.008392	-0.008087	-0.080719	0.10315	-0.028534	0.001831	-0.023346	0.019684	-0.04364	0.059204	0.009308	-0.13596	-0.14236	-0.019226	-0.002136	0.042267	-0.005798	-0.057526	0.071869	-0.000763	0.005188
25.411	-0.015411	0.011749	-0.00946	-0.016174	0.011902	0.10208	-0.018463	-0.003662	0.005646	0.005646	0.051575	0.005798	-0.022888	-0.12192	0.15869	-0.017395	0.017395	-0.061951	-0.11673	0.007019	-0.007324	-0.013733	-0.16953	-0.22781	-0.073547	-0.004272	-0.013123	-0.00061	-0.05127	0.086823	-0.004883	0.001678
25.412	0.001831	-0.005341	0.029602	0.000153	0.02121	0.31387	-0.052338	0.002136	0.005493	0.002899	0.036316	-0.001068	-0.032196	-0.089569	0.064087	-0.040894	0.042419	-0.054321	-0.20065	0.001221	-0.00061	-0.01358	0.030365	-0.29556	0.03418	-0.007324	0.063934	-0.001373	0.03006	0.066986	-0.000763	0.00946
